<?xml version="1.0" standalone="no"?>
<!DOCTYPE svg PUBLIC "-//W3C//DTD SVG 20010904//EN"
 "http://www.w3.org/TR/2001/REC-SVG-20010904/DTD/svg10.dtd">
<svg version="1.0" xmlns="http://www.w3.org/2000/svg"
 width="3000.000000pt" height="3000.000000pt" viewBox="0 0 3000.000000 3000.000000"
 preserveAspectRatio="xMidYMid meet">

<g transform="translate(0.000000,3000.000000) scale(0.100000,-0.100000)"
fill="#000000" stroke="none">
<path d="M24593 25535 c-40 -28 -109 -127 -208 -300 -129 -225 -188 -307 -320
-440 -225 -227 -495 -443 -910 -727 -667 -456 -1155 -853 -1445 -1172 -369
-408 -585 -787 -739 -1301 -66 -220 -111 -452 -147 -760 l-7 -60 -19 60 c-10
33 -30 123 -44 200 -26 143 -40 195 -55 195 -16 0 -131 -169 -203 -300 -166
-301 -291 -579 -361 -800 -66 -212 -129 -509 -157 -745 -17 -152 -15 -470 6
-589 9 -54 15 -101 12 -103 -2 -2 -46 29 -98 70 -130 101 -393 276 -571 381
-439 257 -938 458 -1380 556 -341 75 -562 95 -972 87 -330 -6 -459 -19 -835
-83 -146 -25 -305 -47 -355 -51 -90 -6 -91 -5 -225 44 -428 159 -935 232
-1520 220 -806 -17 -1454 -180 -2225 -562 -231 -114 -386 -204 -529 -309 -52
-37 -98 -69 -101 -70 -4 0 -31 67 -60 149 -123 350 -266 679 -479 1100 -90
177 -185 382 -232 500 -43 109 -89 212 -102 227 -28 33 -69 37 -103 9 l-24
-19 1 -269 c0 -147 4 -288 8 -313 4 -26 3 -41 -2 -35 -5 6 -48 123 -97 260
-138 392 -258 668 -442 1017 -311 591 -750 1188 -1246 1695 -287 292 -518 485
-843 702 -482 322 -933 529 -1439 661 -289 75 -501 109 -1070 170 -833 89
-1021 132 -1247 283 -96 64 -126 93 -182 179 -43 66 -74 86 -119 74 -15 -3
-35 -18 -44 -33 -17 -25 -18 -72 -18 -663 1 -735 13 -958 81 -1435 90 -637
310 -1309 588 -1800 230 -404 452 -663 746 -866 50 -35 87 -65 81 -67 -18 -6
-198 46 -309 89 -142 55 -517 233 -558 264 -48 36 -68 34 -61 -8 6 -36 135
-395 194 -537 202 -491 565 -955 948 -1212 159 -107 283 -166 495 -234 221
-70 462 -154 473 -164 14 -13 -83 -141 -182 -241 -188 -189 -474 -340 -731
-385 -46 -8 -89 -19 -94 -24 -7 -7 -6 -10 0 -10 6 0 21 -9 33 -19 12 -11 93
-49 179 -86 340 -145 497 -239 853 -507 295 -222 446 -308 659 -376 172 -55
249 -67 431 -67 l167 0 -32 -45 c-50 -72 -127 -142 -194 -178 -117 -63 -296
-113 -397 -113 -108 0 -111 -26 -7 -72 31 -13 102 -44 156 -67 55 -23 175 -84
268 -136 226 -126 370 -197 504 -250 318 -124 565 -145 827 -69 45 13 83 23
84 21 2 -2 -30 -52 -71 -112 -254 -375 -416 -723 -531 -1142 l-18 -63 -69 75
c-202 219 -517 406 -908 539 -149 51 -552 168 -642 186 -66 14 -94 5 -104 -34
-8 -34 9 -83 77 -214 33 -63 58 -115 57 -117 -2 -1 -33 16 -68 39 -248 157
-764 357 -1117 431 -242 51 -340 60 -628 60 -497 0 -832 -67 -1350 -271 -600
-236 -866 -327 -921 -317 -39 7 -64 -8 -64 -38 0 -10 39 -60 88 -111 153 -162
296 -369 627 -907 336 -547 410 -660 579 -885 344 -458 745 -797 1221 -1031
190 -93 400 -168 520 -185 44 -6 102 -14 129 -17 l49 -7 -35 -25 c-88 -62
-275 -231 -320 -288 -43 -53 -48 -65 -37 -78 11 -14 33 -15 164 -9 240 11 411
-23 777 -154 545 -194 837 -251 1298 -251 325 0 568 45 797 146 6 3 23 -20 39
-58 149 -338 432 -779 692 -1082 52 -59 90 -112 85 -116 -4 -4 -30 -13 -57
-19 -73 -18 -263 -95 -411 -167 -402 -196 -761 -447 -1051 -738 -211 -212
-330 -363 -479 -611 -176 -291 -319 -625 -525 -1225 -67 -195 -142 -399 -165
-453 -56 -127 -274 -532 -336 -624 -27 -39 -49 -78 -49 -87 0 -15 31 -38 47
-35 4 1 16 -1 27 -6 12 -5 28 -2 46 8 43 26 524 102 910 146 190 21 347 37
349 35 2 -2 -52 -61 -120 -132 -424 -438 -896 -1122 -1229 -1782 -230 -458
-420 -941 -620 -1576 -334 -1060 -520 -1904 -596 -2701 l-7 -73 1297 0 1296 0
-6 122 c-12 225 28 837 76 1172 77 533 209 1064 407 1631 241 693 545 1262
994 1861 467 625 1167 1273 1771 1640 194 118 554 287 853 399 935 351 1848
535 2856 576 296 12 573 4 819 -26 144 -17 596 -51 814 -61 112 -5 147 -4 142
4 -4 7 -20 12 -36 12 -15 0 -30 4 -32 9 -7 19 -442 80 -863 121 -321 31 -612
79 -1105 181 -368 76 -495 111 -628 170 -255 115 -741 366 -1007 521 -606 355
-824 462 -1087 539 -136 39 -226 46 -324 24 -251 -56 -417 -214 -493 -471 -33
-111 -149 -584 -157 -639 -7 -52 -29 -105 -42 -105 -5 0 3 33 17 72 25 72 25
77 26 393 1 300 3 325 23 393 43 141 128 285 261 440 40 46 54 55 116 73 133
40 260 91 288 117 31 29 32 35 13 55 -10 9 -12 28 -9 59 5 40 2 50 -20 72 -22
22 -35 26 -84 26 -156 0 -430 -68 -581 -144 -313 -157 -1094 -666 -1577 -1026
-228 -171 -336 -258 -552 -448 -264 -232 -609 -493 -738 -559 -53 -27 -179
-73 -202 -73 -21 0 -15 31 16 85 40 70 177 198 381 356 333 258 493 395 950
812 340 310 752 721 890 887 120 144 244 329 301 447 48 100 90 252 91 330 2
106 -22 155 -141 278 -401 416 -761 936 -1050 1515 -78 157 -105 223 -138 340
-75 263 -98 304 -239 425 -133 112 -249 173 -584 303 -113 44 -288 115 -390
159 -102 44 -255 106 -340 137 -264 97 -308 115 -499 201 -277 125 -667 280
-1141 455 -633 234 -1734 667 -1786 702 -71 48 -49 88 45 88 110 0 211 -31
671 -205 618 -234 1224 -448 1551 -548 1099 -337 1748 -432 2036 -298 60 29
113 82 128 132 4 10 44 43 89 73 115 75 196 156 234 236 16 36 80 213 142 394
165 490 269 740 427 1031 148 270 258 439 501 766 l147 197 30 -52 c37 -60 58
-65 66 -16 7 41 13 30 29 -53 15 -74 58 -129 85 -107 31 26 45 69 55 170 16
151 -10 401 -56 545 -44 134 -200 419 -327 595 -89 123 -502 656 -787 1015
-308 388 -367 465 -575 750 -275 376 -302 409 -780 940 -471 524 -605 682
-823 975 -80 107 -196 263 -258 345 -106 143 -240 305 -395 480 -142 159 -233
429 -171 505 35 43 144 45 226 4 145 -74 345 -306 914 -1060 898 -1192 1210
-1587 1747 -2214 837 -976 1322 -1441 1700 -1630 286 -142 845 -282 845 -210
0 35 -131 111 -400 233 l-215 97 1 228 c1 210 3 234 27 322 14 53 50 154 81
225 72 172 89 239 89 355 0 125 -22 214 -124 492 -133 367 -161 469 -185 676
-14 129 -31 561 -21 552 3 -3 23 -51 46 -107 22 -56 75 -175 117 -265 208
-444 274 -590 355 -785 115 -277 171 -433 226 -628 98 -351 139 -464 190 -517
35 -37 51 -35 69 7 18 43 7 154 -33 352 -15 73 -25 133 -23 135 840 589 1568
864 2550 965 206 21 731 24 895 5 182 -21 352 -51 495 -86 147 -37 521 -155
683 -216 103 -38 197 -58 197 -43 0 17 -65 71 -125 104 l-60 34 121 7 c66 3
210 16 320 27 528 54 837 55 1374 1 292 -29 495 -68 732 -141 285 -87 668
-278 986 -490 109 -73 490 -358 607 -453 97 -79 284 -265 365 -361 131 -156
660 -837 660 -849 0 -3 -20 -14 -44 -24 -93 -42 -197 -184 -292 -403 -63 -145
-90 -240 -119 -424 -45 -278 -44 -374 7 -539 29 -91 70 -136 125 -136 84 0
126 90 127 270 0 58 -2 213 -4 345 -4 223 -3 246 18 329 47 186 142 335 239
372 41 16 47 16 78 1 18 -9 48 -37 66 -64 18 -26 49 -68 69 -93 179 -218 524
-749 745 -1145 89 -158 295 -567 295 -584 0 -14 -17 -14 -25 -1 -3 5 -38 19
-77 31 -233 71 -446 -82 -573 -410 -85 -221 -124 -454 -132 -791 -10 -431 45
-835 164 -1204 173 -536 417 -847 701 -891 l42 -7 0 -57 c0 -233 321 -264 718
-68 62 31 85 38 91 29 16 -26 47 -438 56 -757 11 -363 -18 -586 -115 -890
-205 -637 -633 -1215 -1183 -1599 -271 -189 -550 -334 -948 -492 -447 -177
-900 -307 -1814 -519 -651 -150 -763 -177 -985 -237 -123 -33 -233 -64 -243
-70 -38 -20 0 -25 88 -12 50 8 98 11 107 8 10 -3 64 4 120 15 501 100 1140
203 1463 235 664 67 1081 71 1579 15 453 -50 932 -176 1351 -354 294 -124 768
-379 842 -453 75 -75 353 -518 526 -837 189 -351 455 -922 650 -1396 303 -736
452 -1219 592 -1914 158 -789 216 -1336 231 -2187 l7 -378 72 0 72 0 7 46 c10
76 7 865 -4 1044 -47 735 -189 1571 -385 2256 -275 959 -880 2317 -1384 3104
-177 275 -423 609 -639 865 -55 66 -99 121 -97 123 1 2 52 -25 111 -59 379
-218 818 -378 1252 -455 198 -35 537 -44 747 -20 337 39 691 106 913 172 64
19 158 46 207 60 50 15 98 33 107 41 10 9 25 12 37 8 12 -4 21 -2 21 4 0 18
-43 100 -107 206 -90 149 -134 243 -198 420 -127 352 -210 530 -344 731 -110
166 -195 269 -341 414 -593 594 -1555 1109 -2157 1156 -45 4 -86 10 -91 13 -6
4 -1 42 13 96 49 194 73 388 83 675 l7 195 30 6 c17 4 80 7 140 8 247 2 537
73 823 200 293 130 707 396 992 637 97 82 420 407 420 423 0 5 20 24 45 41 47
32 61 72 29 84 -9 3 -79 6 -157 7 -141 1 -142 1 -102 17 106 42 303 149 425
230 496 330 908 859 1188 1527 169 401 315 979 368 1453 13 120 15 207 10 477
-3 182 -2 370 3 420 10 102 3 132 -34 141 -36 9 -156 -33 -345 -122 -236 -110
-535 -203 -983 -305 -712 -162 -903 -221 -1215 -378 -416 -209 -826 -526
-1027 -794 -32 -43 -60 -76 -62 -73 -6 5 23 128 49 206 29 90 85 212 162 357
37 67 66 132 66 143 0 21 -3 22 -62 15 -207 -22 -571 -161 -815 -309 -298
-180 -579 -444 -692 -648 -14 -26 -30 -47 -34 -45 -5 1 -33 62 -62 134 -121
297 -310 688 -460 952 l-77 134 89 89 c126 127 172 160 371 263 477 246 704
442 899 774 70 118 130 252 249 553 122 310 218 500 311 614 50 62 40 94 -29
94 -39 0 -192 -52 -283 -97 l-50 -24 80 78 c44 43 141 133 216 199 315 282
502 579 594 941 13 54 43 199 65 323 46 254 66 333 116 456 40 99 41 114 14
139 -17 15 -24 16 -45 7 -25 -12 -373 -207 -450 -253 l-39 -24 24 40 c38 64
179 250 294 390 190 230 287 392 389 650 102 257 167 508 188 732 14 145 4
368 -17 401 -22 34 -63 29 -105 -14 -71 -75 -436 -390 -443 -383 -2 2 25 51
60 109 233 380 390 827 465 1325 18 119 19 587 1 710 -33 232 -92 463 -207
815 -35 107 -86 269 -112 360 -50 169 -89 250 -121 250 -10 0 -27 -7 -39 -15z
m23 -504 c56 -276 26 -491 -90 -650 -19 -25 -87 -98 -151 -161 -175 -172 -255
-289 -271 -396 -5 -37 -10 -43 -37 -48 -36 -7 -98 -69 -128 -128 -11 -22 -24
-36 -29 -32 -21 23 -45 174 -45 284 1 171 35 280 193 600 82 168 90 179 182
275 118 124 200 224 275 338 69 103 62 109 101 -82z m-20810 -111 c193 -118
399 -177 836 -239 158 -23 292 -41 298 -41 17 0 11 -85 -11 -167 -40 -145 -16
-256 86 -398 73 -103 140 -169 289 -289 226 -181 283 -254 327 -421 15 -56 21
-112 22 -190 1 -150 -21 -219 -119 -361 -24 -36 -46 -77 -49 -92 -3 -15 -20
-54 -37 -87 -70 -133 -38 -317 89 -519 l25 -39 -76 6 c-97 7 -154 34 -227 106
-68 68 -133 193 -155 301 -9 44 -19 167 -24 300 -9 236 -18 289 -64 384 -52
106 -173 214 -310 276 -78 36 -115 45 -283 75 -177 31 -241 61 -343 164 -270
271 -450 773 -450 1254 l0 99 48 -36 c26 -20 83 -58 128 -86z m1549 -336 c138
-19 317 -48 398 -65 81 -16 150 -29 153 -29 2 0 4 -49 4 -110 0 -250 50 -336
293 -504 69 -47 149 -110 179 -141 107 -109 178 -287 178 -443 0 -103 -15
-149 -114 -351 -98 -201 -120 -285 -120 -479 l-1 -143 -45 53 c-208 243 -299
318 -442 363 l-67 21 30 45 c124 185 113 528 -22 726 -56 81 -112 127 -322
266 -246 163 -312 217 -377 309 -79 113 -96 205 -65 348 8 36 14 91 15 123 l0
57 38 -5 c20 -3 150 -21 287 -41z m852 -180 c194 -60 463 -167 643 -257 l145
-72 6 -92 c11 -150 39 -217 178 -427 130 -197 183 -347 185 -526 1 -162 -32
-254 -167 -458 -133 -199 -182 -315 -208 -492 -23 -162 1 -433 57 -628 9 -29
14 -56 12 -61 -6 -16 -338 511 -402 636 -152 302 -189 579 -115 853 11 41 31
118 45 170 32 117 36 294 10 402 -42 177 -107 294 -262 470 -193 220 -222 266
-268 425 -14 50 -26 94 -26 97 0 11 19 6 167 -40z m17594 -67 c-68 -152 -85
-222 -85 -357 0 -150 10 -189 95 -354 l60 -116 -30 -68 c-45 -103 -105 -256
-193 -492 -44 -118 -84 -223 -90 -233 -8 -16 -15 -8 -43 50 -18 37 -56 97 -85
133 -91 112 -117 207 -107 395 11 214 121 554 285 881 48 95 56 106 134 167
45 36 84 65 85 63 2 -2 -10 -33 -26 -69z m-467 -344 c-146 -327 -196 -509
-198 -723 -2 -251 53 -372 219 -478 38 -24 93 -69 121 -99 l52 -54 -68 -167
c-37 -92 -123 -297 -190 -457 -67 -159 -129 -307 -138 -327 -32 -80 -70 -28
-83 115 -23 228 -56 294 -197 389 -94 63 -152 123 -185 192 -42 84 -52 147
-51 306 2 296 66 518 264 909 70 139 100 188 128 211 54 43 336 239 344 240 4
0 -4 -26 -18 -57z m-16105 -53 c331 -200 675 -465 734 -565 76 -128 159 -299
188 -385 27 -79 32 -110 32 -185 0 -110 -25 -190 -136 -435 -76 -170 -113
-267 -142 -380 -106 -411 -71 -1035 87 -1528 46 -145 144 -402 194 -511 19
-41 34 -76 34 -78 0 -16 -24 18 -58 81 -22 41 -109 172 -193 292 -544 778
-731 1165 -780 1619 -25 237 7 443 110 707 133 338 151 529 75 797 -15 52 -66
169 -129 296 -97 193 -150 335 -125 335 5 0 54 -27 109 -60z m16886 -283 c24
-37 38 -170 31 -292 -16 -277 -172 -887 -457 -1784 -101 -317 -120 -363 -207
-513 -71 -120 -118 -215 -345 -683 -201 -418 -277 -565 -479 -930 -58 -104
-163 -300 -233 -435 -71 -135 -157 -297 -193 -360 -83 -148 -305 -500 -443
-706 -183 -270 -493 -684 -513 -684 -6 1 -45 44 -86 97 -41 52 -139 170 -217
261 -79 91 -143 169 -143 172 0 3 42 24 93 48 140 65 263 159 433 327 411 410
757 966 1407 2265 319 636 449 925 728 1612 202 498 250 629 395 1088 139 441
146 462 174 508 23 38 34 40 55 9z m-1519 -224 c-169 -339 -228 -744 -145
-998 49 -148 156 -255 328 -329 143 -61 161 -92 171 -286 4 -74 12 -147 18
-161 6 -14 31 -44 57 -66 l47 -40 -103 -224 c-57 -123 -170 -358 -251 -523
-130 -261 -150 -297 -164 -285 -34 28 -45 71 -54 212 -16 267 -91 386 -309
488 -171 81 -190 91 -252 147 -100 90 -149 216 -171 435 -27 262 37 589 185
958 94 232 97 237 231 366 126 122 435 393 449 393 4 0 -13 -39 -37 -87z
m-14006 -673 c175 -205 310 -375 310 -394 0 -9 32 -113 71 -231 107 -327 140
-465 146 -616 7 -161 -8 -232 -92 -439 -105 -258 -135 -415 -156 -806 -24
-436 19 -824 133 -1208 16 -54 27 -100 24 -103 -2 -2 -109 113 -238 256 -188
208 -239 271 -255 313 -12 29 -52 125 -91 213 -83 189 -109 266 -238 689 -113
374 -166 578 -199 771 -69 400 -58 706 37 1005 37 118 94 227 183 349 126 175
153 276 119 451 -6 31 74 -51 246 -250z m13060 -298 c-149 -476 -102 -942 119
-1161 80 -80 150 -116 321 -166 142 -41 214 -83 261 -152 50 -72 60 -116 68
-278 7 -167 19 -202 79 -240 17 -11 31 -24 32 -28 0 -5 -81 -165 -179 -356
-286 -554 -496 -937 -519 -946 -22 -8 -80 25 -112 63 -73 89 -79 230 -17 432
62 203 70 240 70 345 1 111 -16 180 -65 279 -23 48 -63 93 -188 216 -175 171
-215 226 -256 355 -93 295 -65 698 80 1140 50 154 97 252 182 383 75 116 145
214 150 210 1 -2 -10 -45 -26 -96z m-12327 -689 c146 -237 316 -540 352 -628
31 -75 134 -454 169 -617 44 -207 60 -348 53 -468 -7 -124 -25 -178 -93 -286
-117 -186 -155 -285 -179 -471 -35 -264 -13 -543 70 -881 24 -97 42 -179 39
-181 -5 -5 -224 201 -319 301 -78 83 -81 88 -148 249 -143 350 -239 641 -273
832 -27 153 -38 422 -25 627 21 350 54 481 191 755 54 110 107 227 115 260 9
33 19 114 22 180 5 131 -12 247 -62 403 -25 79 -28 92 -21 92 3 0 52 -75 109
-167z m11390 -1053 c35 -94 95 -209 122 -236 54 -54 133 -12 153 81 6 28 16
91 22 140 7 50 14 97 17 105 2 8 16 -19 29 -60 61 -180 160 -306 338 -433 138
-98 190 -152 233 -242 61 -129 58 -211 -18 -454 -73 -236 -75 -348 -11 -474
34 -66 71 -104 137 -142 23 -14 21 -17 -98 -195 -147 -221 -284 -397 -408
-525 l-117 -120 -17 59 c-20 67 -17 91 27 286 53 231 41 357 -48 518 -56 100
-125 174 -263 281 -71 55 -145 119 -166 143 -56 64 -102 170 -127 288 -20 94
-22 136 -23 395 0 226 4 320 18 425 24 174 26 182 115 390 l15 35 22 -100 c13
-55 34 -129 48 -165z m-10650 -385 c57 -132 125 -282 151 -333 36 -72 52 -120
71 -215 13 -67 55 -228 94 -357 90 -306 95 -333 95 -475 0 -132 -5 -151 -108
-401 -89 -216 -127 -430 -107 -597 6 -50 14 -103 18 -116 l6 -24 -44 26 c-24
14 -106 72 -182 128 -105 78 -143 112 -159 143 -56 109 -146 440 -173 635 -14
93 -16 157 -12 255 11 226 54 386 177 646 103 218 105 228 104 470 0 190 -8
278 -40 435 -4 17 -4 28 -1 25 3 -3 53 -113 110 -245z m10238 -590 c12 -93 55
-228 95 -300 15 -27 59 -82 98 -120 61 -61 93 -82 226 -150 125 -64 166 -90
211 -136 67 -68 106 -143 122 -233 10 -63 9 -72 -37 -257 -60 -238 -61 -304
-7 -390 l33 -53 -29 -24 c-69 -57 -251 -172 -273 -172 -4 0 -55 53 -111 118
-57 64 -186 208 -286 319 l-182 201 10 34 c6 18 14 195 19 393 9 359 21 509
61 760 22 136 32 170 37 120 1 -16 7 -66 13 -110z m-11021 -3026 c-7 -11 -14
-18 -17 -15 -8 8 5 36 17 36 7 0 7 -6 0 -21z m18175 -231 c-38 -288 -50 -308
-256 -444 -70 -46 -143 -102 -163 -126 -47 -55 -86 -134 -86 -175 0 -19 -6
-35 -12 -37 -7 -2 -35 -10 -62 -17 -50 -13 -99 -41 -345 -197 -79 -51 -146
-90 -148 -89 -2 2 9 31 24 63 25 53 27 68 24 149 -6 174 -5 200 12 231 27 52
96 126 222 239 66 59 147 134 181 167 60 58 62 59 200 99 161 46 278 92 349
137 28 17 53 32 57 32 4 0 5 -15 3 -32z m-947 -330 c-76 -87 -150 -204 -173
-273 -14 -42 -16 -73 -10 -195 l6 -145 -31 -62 c-27 -54 -144 -200 -196 -244
-16 -14 -441 -261 -514 -299 -18 -9 -11 2 23 39 87 93 135 232 121 351 -3 30
-26 109 -51 175 -58 156 -57 190 13 305 40 66 172 242 215 285 9 9 592 132
637 134 20 1 14 -9 -40 -71z m-878 -133 c0 -3 -23 -33 -51 -67 -101 -126 -137
-247 -104 -347 9 -29 42 -84 72 -124 75 -97 93 -139 93 -214 0 -73 -22 -138
-70 -209 -58 -85 -212 -253 -259 -283 -137 -87 -985 -531 -1014 -531 -5 0 27
38 71 85 93 99 166 204 201 289 23 56 26 78 31 251 6 173 9 197 35 273 32 94
101 220 182 334 57 79 262 310 307 345 36 29 196 98 356 154 139 49 150 53
150 44z m-1880 -562 c-148 -143 -254 -281 -319 -416 -99 -205 -101 -340 -9
-537 22 -47 43 -105 48 -130 20 -107 -39 -251 -159 -388 -42 -48 -91 -106
-109 -129 -28 -35 -41 -43 -88 -53 -31 -7 -59 -8 -63 -3 -4 4 -22 58 -41 118
-18 61 -72 229 -121 375 -73 220 -85 268 -75 280 7 8 28 42 46 75 172 311 515
637 915 872 50 29 91 53 93 53 2 0 -52 -53 -118 -117z m3268 101 c30 -21 28
-48 -13 -132 -87 -181 -298 -427 -560 -653 -140 -120 -169 -140 -545 -374
-184 -114 -452 -284 -595 -378 -618 -405 -762 -483 -1290 -697 -273 -111 -495
-230 -663 -356 -48 -36 -74 -50 -77 -42 -2 7 -22 90 -45 183 -35 151 -104 411
-124 472 -8 25 -2 28 100 38 390 38 1269 429 2184 972 243 145 879 551 1145
731 311 211 338 229 370 240 44 15 88 14 113 -4z m-2375 -56 c-46 -68 -95
-173 -124 -268 -20 -64 -24 -96 -23 -215 0 -77 2 -179 5 -226 4 -84 3 -87 -38
-170 -52 -104 -138 -212 -296 -373 -135 -136 -127 -131 -397 -241 -163 -67
-417 -155 -446 -155 -11 0 1 19 38 63 149 169 218 317 218 463 0 34 -12 111
-26 171 -53 223 -16 359 164 601 60 80 238 271 284 303 l29 21 -26 -59 c-41
-91 -95 -279 -111 -383 -7 -52 -14 -141 -14 -197 0 -92 2 -104 23 -129 17 -19
33 -27 55 -27 47 0 77 33 95 106 51 205 190 412 402 597 96 84 205 169 217
170 4 0 -9 -24 -29 -52z m-19603 -52 c160 -24 158 -23 170 -61 6 -18 50 -76
98 -128 98 -107 153 -192 184 -287 18 -58 21 -91 23 -300 2 -268 8 -297 81
-448 25 -52 44 -96 42 -98 -4 -3 -393 115 -661 201 -144 46 -149 49 -183 93
-78 102 -123 239 -124 372 0 36 7 114 16 174 29 198 -5 306 -135 435 l-74 74
229 -6 c126 -3 276 -12 334 -21z m-673 -123 c167 -164 169 -168 184 -383 14
-216 34 -311 94 -447 14 -31 23 -58 21 -60 -3 -3 -157 45 -343 107 -331 110
-339 113 -387 159 -64 61 -82 103 -106 257 -25 159 -58 232 -132 299 -28 25
-64 53 -79 62 -16 10 -29 20 -29 23 0 17 442 101 625 119 6 1 74 -61 152 -136z
m2381 -41 l184 -65 57 -76 c86 -112 200 -288 232 -356 53 -113 63 -172 53
-335 -16 -267 -1 -448 48 -549 12 -25 49 -75 82 -110 l61 -64 -85 7 c-99 8
-349 43 -401 56 -56 15 -212 125 -282 200 -36 38 -81 97 -100 132 -60 107 -68
151 -72 363 -2 175 -5 196 -30 270 -33 99 -80 178 -154 257 l-56 62 130 -69
c72 -38 153 -82 180 -97 28 -15 60 -33 73 -39 30 -16 56 -2 60 33 4 35 -81
199 -182 352 -47 71 -86 130 -86 132 0 2 24 -6 53 -17 28 -12 134 -51 235 -87z
m-1086 24 c272 -81 251 -69 429 -252 224 -230 253 -287 289 -559 31 -235 63
-331 156 -461 41 -59 158 -174 176 -174 4 0 8 -4 8 -9 0 -14 -459 94 -774 181
-134 37 -153 45 -185 78 -46 48 -116 170 -147 257 -31 89 -33 233 -4 388 44
240 12 394 -115 549 -27 34 -40 56 -31 56 8 0 97 -24 198 -54z m-2326 -80
c160 -54 327 -158 368 -229 13 -23 37 -82 51 -132 15 -49 36 -108 47 -129 l20
-39 -24 7 c-103 30 -211 47 -274 44 -59 -3 -77 -8 -107 -31 -49 -37 -65 -91
-48 -155 25 -96 111 -174 291 -266 82 -42 485 -227 650 -298 24 -10 23 -11
-25 -23 -27 -6 -81 -24 -120 -40 -136 -54 -314 -27 -488 76 -172 102 -253 200
-400 486 -58 111 -127 233 -155 271 -98 132 -235 240 -376 298 l-67 28 198 51
c109 29 236 63 283 78 47 14 90 26 96 26 6 1 42 -10 80 -23z m4185 -294 c126
-85 233 -173 357 -295 l93 -91 -25 -140 c-32 -173 -41 -243 -57 -416 -11 -127
-13 -137 -42 -174 -37 -46 -92 -73 -177 -84 -57 -8 -64 -7 -98 18 -60 44 -148
145 -175 202 -61 130 -65 270 -11 438 76 240 53 387 -97 606 -30 43 -58 84
-62 92 -14 22 185 -83 294 -156z m14540 -312 c47 -26 98 -185 99 -307 0 -112
-37 -230 -79 -252 -43 -23 -97 60 -121 187 -17 82 -8 263 14 317 16 38 40 65
59 65 4 0 17 -5 28 -10z m1044 -1800 c25 -123 44 -230 43 -238 -3 -15 -188
-115 -188 -102 0 5 9 47 19 92 28 119 50 267 57 386 4 57 11 99 15 95 4 -4 28
-109 54 -233z m119 -681 c15 -76 9 -96 -40 -130 -69 -47 -251 -139 -276 -139
-25 0 -68 36 -68 57 0 33 35 76 88 111 56 36 257 131 278 132 6 0 14 -14 18
-31z m256 -2214 c69 -25 177 -64 240 -86 137 -49 361 -141 356 -146 -2 -3 -32
-11 -66 -19 -80 -18 -189 -69 -315 -146 -141 -87 -194 -107 -283 -108 -124 0
-282 76 -282 137 0 9 44 107 98 219 72 151 101 203 112 200 8 -3 71 -26 140
-51z m-14272 -126 c70 -67 161 -147 201 -177 41 -31 70 -57 64 -59 -6 -2 -39
10 -73 27 -34 17 -98 45 -143 61 -44 16 -111 46 -149 66 -71 37 -161 109 -156
124 3 10 108 77 121 78 5 1 66 -54 135 -120z m312 7 c0 -11 -19 -15 -25 -6 -3
5 1 10 9 10 9 0 16 -2 16 -4z m-636 -50 c48 -82 148 -140 346 -200 63 -19 132
-42 153 -51 l38 -16 -30 -37 c-44 -55 -163 -186 -173 -190 -4 -2 -20 5 -35 16
-72 50 -139 64 -338 73 -124 5 -208 13 -241 23 -65 20 -152 83 -189 137 l-30
42 24 16 c27 19 433 231 443 231 3 0 18 -20 32 -44z m15462 -192 c211 -110
563 -321 564 -337 0 -4 -26 -5 -58 -1 -70 8 -181 -8 -259 -38 -32 -12 -126
-68 -210 -124 -83 -57 -173 -114 -200 -127 -71 -36 -154 -50 -248 -43 -137 11
-174 26 -270 106 -93 77 -248 219 -253 232 -2 4 14 10 35 13 112 19 165 49
288 165 146 137 240 192 354 209 114 17 123 15 257 -55z m-16057 -126 c31 -71
85 -124 167 -165 99 -48 193 -54 370 -24 150 26 180 26 247 1 110 -41 118 -23
-113 -255 -113 -113 -212 -205 -220 -205 -8 0 -40 16 -70 36 -30 19 -90 46
-134 60 -115 36 -198 40 -341 15 -176 -29 -253 -35 -317 -22 -68 15 -137 58
-178 114 l-31 42 53 48 c127 115 511 397 540 397 5 0 17 -19 27 -42z m14823
-143 c266 -323 823 -750 1366 -1044 310 -169 609 -293 987 -411 267 -84 325
-110 325 -144 0 -25 -19 -46 -66 -70 -57 -28 -126 -38 -257 -37 -206 1 -393
36 -654 122 -409 134 -596 237 -1058 584 -281 210 -847 601 -937 647 -37 18
-67 36 -67 40 -1 3 19 30 42 60 41 50 150 208 211 307 15 24 31 39 35 35 4 -5
37 -45 73 -89z m2064 -251 c163 -122 354 -284 354 -299 0 -2 -21 -2 -47 1
-118 14 -303 -58 -428 -166 -177 -151 -235 -180 -375 -187 l-95 -5 -86 45
c-105 56 -243 139 -374 226 l-99 66 60 7 c132 14 222 61 412 216 141 114 218
157 307 172 33 6 94 16 135 23 41 8 82 10 91 5 9 -4 75 -51 145 -104z m-17596
-123 c0 -4 18 -29 41 -54 48 -55 143 -105 215 -113 67 -8 184 16 325 66 131
47 197 57 270 40 63 -14 169 -68 217 -109 l33 -29 -186 -173 c-212 -197 -190
-188 -344 -155 -60 13 -110 17 -180 14 -85 -4 -111 -10 -221 -52 -211 -81
-358 -84 -469 -11 -42 28 -91 91 -91 117 0 32 172 257 299 390 69 73 91 90 91
69z m18097 -321 c114 -123 278 -345 267 -361 -3 -5 -12 -9 -19 -9 -24 0 -117
-45 -211 -101 -121 -73 -169 -88 -281 -89 -79 0 -103 4 -167 29 -129 52 -376
163 -376 170 0 3 28 19 61 35 42 20 97 63 173 134 213 200 298 247 449 251 47
1 51 -1 104 -59z m-14899 -245 c-11 -20 -23 -34 -25 -31 -5 5 35 66 42 66 3 0
-5 -16 -17 -35z m-2662 -26 c52 -17 94 -34 94 -38 0 -7 -357 -343 -409 -384
-32 -25 -42 -28 -86 -24 -129 12 -259 -39 -508 -197 -74 -47 -150 -92 -170
-101 -46 -19 -110 -19 -146 0 -32 16 -111 101 -111 119 0 16 209 438 264 534
l48 82 44 -49 c25 -28 63 -57 92 -69 122 -53 226 -36 452 72 178 85 171 83
268 85 58 1 94 -6 168 -30z m17952 -289 c77 -145 183 -395 176 -414 -7 -18 46
-113 141 -251 34 -49 65 -96 69 -102 4 -8 -22 -3 -66 13 -93 34 -102 38 -150
82 -46 42 -77 98 -106 198 -42 138 -124 220 -264 264 -76 24 -207 81 -208 90
0 3 15 14 34 24 19 10 67 45 108 78 40 33 100 80 132 104 69 52 57 59 134 -86z
m-18473 -322 c-156 -141 -338 -330 -388 -403 -26 -39 -58 -97 -71 -129 -22
-54 -27 -60 -79 -81 -56 -22 -73 -34 -168 -116 -65 -56 -108 -79 -146 -79 -39
1 -100 30 -152 74 -24 20 -49 40 -57 44 -11 6 -2 42 50 182 63 174 116 311
122 319 2 2 23 -14 47 -36 84 -77 189 -93 291 -44 27 14 98 72 166 136 170
162 267 214 400 215 l75 0 -90 -82z m13300 2 c-3 -5 -11 -10 -16 -10 -6 0 -7
5 -4 10 3 6 11 10 16 10 6 0 7 -4 4 -10z m-12761 -361 c-20 -57 -49 -129 -66
-161 -81 -153 -272 -316 -484 -414 -163 -75 -381 -122 -682 -149 -198 -17
-290 -34 -417 -76 -96 -32 -176 -73 -237 -121 -21 -16 -38 -26 -38 -21 0 4 27
49 60 98 63 94 155 266 185 348 10 26 20 47 22 47 2 0 15 -13 29 -29 14 -17
52 -44 86 -60 50 -25 73 -31 127 -31 96 1 135 23 244 136 50 53 107 103 125
111 31 13 35 12 63 -11 78 -66 240 -61 384 11 65 33 214 133 444 299 101 74
186 132 188 130 2 -2 -13 -50 -33 -107z"/>
<path d="M13850 17140 c-279 -21 -587 -105 -823 -224 -67 -34 -203 -113 -302
-176 -455 -289 -637 -470 -873 -862 -159 -266 -225 -427 -310 -764 -54 -209
-68 -293 -88 -508 -18 -204 -16 -242 19 -295 34 -51 86 -75 149 -69 99 10 142
74 158 233 23 243 62 431 131 631 321 934 827 1532 1493 1763 242 85 404 112
696 118 470 10 793 -57 1144 -237 338 -173 582 -390 831 -740 77 -108 124
-162 136 -154 10 6 -55 139 -114 234 -165 264 -389 492 -652 663 -365 237
-728 350 -1240 387 -153 11 -212 11 -355 0z"/>
<path d="M13970 14564 c-163 -30 -340 -103 -462 -191 -219 -158 -377 -313
-488 -479 -332 -498 -414 -1206 -209 -1813 16 -47 29 -90 29 -96 0 -8 -28 -6
-97 7 -434 83 -915 88 -1276 13 -416 -86 -653 -265 -634 -478 18 -199 238
-375 638 -508 180 -60 470 -121 691 -146 202 -22 645 -24 823 -5 216 24 449
80 574 138 41 19 81 34 89 34 9 0 52 -16 97 -34 115 -50 261 -86 401 -99 103
-9 140 -8 242 6 300 42 543 167 772 397 144 144 229 263 324 455 151 304 216
591 216 955 0 343 -69 650 -213 945 -206 421 -529 723 -910 850 -56 19 -142
41 -191 50 -108 18 -312 18 -416 -1z m-230 -912 c38 -27 78 -117 90 -200 18
-129 -17 -262 -90 -346 -116 -132 -323 -86 -371 83 -22 73 -16 205 11 276 35
91 124 178 210 206 37 12 121 1 150 -19z m-443 -2346 c78 -74 77 -82 -11 -96
-96 -15 -523 -33 -656 -27 -398 19 -301 105 175 156 242 26 255 27 347 29 l76
2 69 -64z"/>
<path d="M22643 10390 c-21 -12 -44 -42 -64 -82 -87 -175 -182 -283 -349 -397
-200 -137 -392 -207 -679 -246 -63 -8 -328 -33 -590 -55 -598 -50 -819 -72
-1146 -116 -588 -78 -947 -117 -1600 -173 -809 -71 -1258 -90 -1677 -71 -527
23 -806 80 -1001 206 -97 63 -158 123 -258 255 -92 122 -130 152 -182 142 -15
-3 -37 -17 -48 -32 -59 -74 40 -292 205 -454 81 -79 220 -169 320 -208 109
-42 278 -84 444 -110 115 -18 195 -22 501 -26 549 -8 932 22 1656 127 261 38
978 130 1275 164 412 47 458 52 890 86 716 56 1226 101 1330 116 287 42 476
105 678 225 179 107 285 212 376 372 86 152 93 235 22 278 -39 24 -63 24 -103
-1z"/>
<path d="M19640 8903 c-89 -7 -354 -55 -436 -79 -210 -60 -324 -148 -324 -247
0 -79 67 -119 239 -142 147 -20 272 -11 504 36 380 77 528 153 514 263 -3 21
-16 50 -30 65 -13 14 -27 34 -30 43 -8 23 -88 44 -209 58 -94 10 -134 10 -228
3z"/>
<path d="M22926 5411 c-7 -11 1 -38 73 -229 209 -557 386 -1321 475 -2052 125
-1021 109 -1909 -50 -2845 -20 -116 -38 -227 -41 -247 l-6 -38 476 0 475 0 6
33 c32 175 59 706 50 1022 -14 543 -50 961 -119 1391 -113 700 -276 1197 -666
2027 l-88 188 35 94 c34 92 58 200 48 216 -11 19 -34 7 -71 -38 -22 -27 -50
-65 -62 -85 -12 -21 -24 -38 -26 -38 -2 0 -25 37 -51 83 -70 119 -164 263
-217 331 -25 32 -47 62 -49 66 -2 4 -30 28 -64 53 -33 25 -66 53 -74 61 -13
17 -46 21 -54 7z"/>
<path d="M21005 5393 c-190 -22 -322 -60 -482 -138 -181 -89 -283 -163 -598
-439 -93 -82 -206 -175 -249 -208 -156 -114 -358 -201 -546 -234 -131 -22
-441 -14 -584 15 -241 50 -386 106 -761 293 -422 211 -599 282 -869 349 -220
54 -406 72 -686 66 -256 -5 -359 -17 -550 -62 -329 -79 -659 -231 -1020 -470
-475 -315 -900 -742 -1310 -1315 -520 -726 -968 -1700 -1149 -2495 -54 -238
-120 -644 -121 -747 0 -5 40 -8 89 -8 l89 0 7 48 c18 123 131 668 176 847 156
617 468 1382 784 1920 433 738 956 1321 1525 1699 394 262 720 401 1090 466
179 32 540 39 735 15 396 -48 677 -141 1170 -388 406 -203 630 -280 904 -312
397 -47 705 23 1001 226 47 32 175 133 284 224 332 277 476 376 668 461 180
80 347 109 582 101 113 -3 170 -10 226 -26 180 -52 480 -228 634 -372 136
-127 312 -381 436 -628 220 -440 363 -1012 411 -1646 17 -224 14 -752 -5 -990
-39 -466 -110 -1034 -181 -1438 -19 -108 -35 -199 -35 -202 0 -3 45 -5 99 -5
94 0 99 1 104 23 23 94 92 473 121 662 35 228 83 634 108 915 20 223 17 890
-5 1110 -96 959 -407 1743 -884 2227 -193 196 -548 394 -806 448 -63 14 -315
19 -402 8z"/>
<path d="M11826 4788 c-3 -29 -15 -163 -26 -298 -88 -1050 -262 -1921 -564
-2825 -162 -483 -411 -1069 -642 -1511 -41 -77 -74 -144 -74 -147 0 -4 150 -7
333 -7 l332 0 39 107 c22 59 41 102 44 95 3 -9 -19 -102 -44 -184 -5 -17 7
-18 160 -18 l165 0 40 128 c188 598 328 1326 385 2002 30 350 37 554 35 1022
-1 395 1 481 12 495 8 10 86 101 173 203 139 161 276 345 276 371 0 49 -157
-59 -332 -229 -76 -74 -140 -133 -143 -130 -3 2 -12 87 -20 189 -20 230 -45
417 -86 627 -34 173 -52 204 -63 110z m-12 -1640 c-7 -78 -22 -134 -23 -90 -1
29 21 162 26 162 2 0 1 -33 -3 -72z"/>
</g>
</svg>
